<svg class="top-divider-waves" xmlns="http://www.w3.org/2000/svg" viewBox="0 0 1440 320"><path fill="#202529" fill-opacity="1" d="M0,96L30,122.7C60,149,120,203,180,202.7C240,203,300,149,360,144C420,139,480,181,540,197.3C600,213,660,203,720,208C780,213,840,235,900,208C960,181,1020,107,1080,101.3C1140,96,1200,160,1260,170.7C1320,181,1380,139,1410,117.3L1440,96L1440,320L1410,320C1380,320,1320,320,1260,320C1200,320,1140,320,1080,320C1020,320,960,320,900,320C840,320,780,320,720,320C660,320,600,320,540,320C480,320,420,320,360,320C300,320,240,320,180,320C120,320,60,320,30,320L0,320Z"></path></svg>